<?xml version="1.0" standalone="no"?><!DOCTYPE svg PUBLIC "-//W3C//DTD SVG 1.1//EN"
        "http://www.w3.org/Graphics/SVG/1.1/DTD/svg11.dtd">
<svg t="1626862320616" class="icon" viewBox="0 0 1024 1024" version="1.1" xmlns="http://www.w3.org/2000/svg" p-id="3080"
     xmlns:xlink="http://www.w3.org/1999/xlink" width="200" height="200">
    <defs>
        <style type="text/css">@font-face { font-family: feedback-iconfont; src:
            url("//at.alicdn.com/t/font_1031158_1uhr8ri0pk5.eot?#iefix") format("embedded-opentype"),
            url("//at.alicdn.com/t/font_1031158_1uhr8ri0pk5.woff2") format("woff2"),
            url("//at.alicdn.com/t/font_1031158_1uhr8ri0pk5.woff") format("woff"),
            url("//at.alicdn.com/t/font_1031158_1uhr8ri0pk5.ttf") format("truetype"),
            url("//at.alicdn.com/t/font_1031158_1uhr8ri0pk5.svg#iconfont") format("svg"); }
        </style>
    </defs>
    <path d="M725.333333 682.666667v-85.333334h-187.733333c-34.133333 102.4-132.266667 170.666667-243.2 170.666667-140.8 0-256-115.2-256-256s115.2-256 256-256c106.666667 0 204.8 68.266667 238.933333 170.666667H896c46.933333 0 85.333333 38.4 85.333333 85.333333s-38.4 85.333333-85.333333 85.333333v85.333334c0 46.933333-38.4 85.333333-85.333333 85.333333s-85.333333-38.4-85.333334-85.333333zM213.333333 512c0 46.933333 38.4 85.333333 85.333334 85.333333s85.333333-38.4 85.333333-85.333333-38.4-85.333333-85.333333-85.333333-85.333333 38.4-85.333334 85.333333z"
          p-id="3081"></path>
</svg>